<svg xmlns="http://www.w3.org/2000/svg" xmlns:xlink="http://www.w3.org/1999/xlink" version="1.1" width="1000" height="1000" viewBox="0 0 1000 1000" xml:space="preserve">
<desc>Created with Fabric.js 3.5.0</desc>
<defs>
</defs>
<rect x="0" y="0" width="100%" height="100%" fill="#ffffff"/>
<g transform="matrix(0.7324 0 0 0.7324 499.9851 499.9851)" id="311057">
<g style="" vector-effect="non-scaling-stroke">
		<g transform="matrix(0.1333 0 0 -0.1333 0.5632 -330.3831)">
<path style="stroke: none; stroke-width: 1; stroke-dasharray: none; stroke-linecap: butt; stroke-dashoffset: 0; stroke-linejoin: miter; stroke-miterlimit: 4; is-custom-font: none; font-file-url: none; fill: rgb(0,0,0); fill-rule: nonzero; opacity: 1;" transform=" translate(-5125, -7597.6137)" d="M 4870 8630 c -309 -22 -603 -86 -905 -197 c -461 -169 -834 -407 -1199 -763 c -239 -233 -426 -481 -594 -786 c -46 -83 -152 -306 -152 -319 c 0 -3 227 -5 503 -5 l 504 0 l 51 78 c 256 389 645 718 1062 897 c 295 128 582 191 905 202 c 847 27 1626 -367 2110 -1067 l 77 -110 l 499 0 c 274 0 499 2 499 4 c 0 3 -24 58 -54 123 c -94 208 -218 417 -353 596 c -576 761 -1377 1221 -2318 1332 c -158 19 -478 26 -635 15 z" stroke-linecap="round"/>
</g>
		<g transform="matrix(0.1333 0 0 -0.1333 1.2908 -227.1498)">
<path style="stroke: none; stroke-width: 1; stroke-dasharray: none; stroke-linecap: butt; stroke-dashoffset: 0; stroke-linejoin: miter; stroke-miterlimit: 4; is-custom-font: none; font-file-url: none; fill: rgb(0,0,0); fill-rule: nonzero; opacity: 1;" transform=" translate(-5130, -6823.5579)" d="M 4915 7080 c -377 -43 -728 -200 -973 -436 l -87 -83 l 1275 0 l 1275 0 l -76 72 c -235 224 -532 368 -894 432 c -107 19 -406 28 -520 15 z" stroke-linecap="round"/>
</g>
		<g transform="matrix(0.1333 0 0 -0.1333 347.6516 -65.2184)">
<path style="stroke: none; stroke-width: 1; stroke-dasharray: none; stroke-linecap: butt; stroke-dashoffset: 0; stroke-linejoin: miter; stroke-miterlimit: 4; is-custom-font: none; font-file-url: none; fill: rgb(0,0,0); fill-rule: nonzero; opacity: 1;" transform=" translate(-7727.4988, -5608.9336)" d="M 7823 6420 c -184 -39 -312 -181 -329 -365 c -3 -33 -7 -75 -10 -92 l -5 -33 l -89 0 c -81 0 -90 -2 -101 -21 c -17 -32 -8 -207 11 -219 c 8 -5 52 -10 98 -10 l 82 0 l 0 -427 c 0 -252 4 -434 10 -443 c 7 -12 38 -16 149 -18 c 130 -3 141 -2 160 17 c 21 21 21 29 21 446 l 0 425 l 114 0 c 146 0 146 0 146 121 c 0 132 4 129 -147 129 l -126 0 l 7 58 c 8 69 32 119 69 146 c 25 18 43 21 140 21 l 112 0 l 19 55 c 10 30 19 82 20 115 l 1 59 l -50 19 c -57 22 -232 32 -302 17 z" stroke-linecap="round"/>
</g>
		<g transform="matrix(0.1333 0 0 -0.1333 -508.0057 -61.7763)">
<path style="stroke: none; stroke-width: 1; stroke-dasharray: none; stroke-linecap: butt; stroke-dashoffset: 0; stroke-linejoin: miter; stroke-miterlimit: 4; is-custom-font: none; font-file-url: none; fill: rgb(0,0,0); fill-rule: nonzero; opacity: 1;" transform=" translate(-1310, -5583.125)" d="M 1162 6354 l -22 -15 l 0 -757 c 0 -460 4 -763 10 -772 c 8 -12 37 -15 160 -15 c 123 0 152 3 160 15 c 6 9 10 312 10 772 c 0 675 -2 758 -16 772 c -23 23 -269 23 -302 0 z" stroke-linecap="round"/>
</g>
		<g transform="matrix(0.1333 0 0 -0.1333 -236.8066 -49.9742)">
<path style="stroke: none; stroke-width: 1; stroke-dasharray: none; stroke-linecap: butt; stroke-dashoffset: 0; stroke-linejoin: miter; stroke-miterlimit: 4; is-custom-font: none; font-file-url: none; fill: rgb(0,0,0); fill-rule: nonzero; opacity: 1;" transform=" translate(-3344.054, -5494.6231)" d="M 3325 6224 c -61 -8 -141 -27 -170 -42 c -52 -27 -56 -37 -49 -149 l 6 -103 l -79 0 c -48 0 -84 -5 -91 -12 c -16 -16 -16 -210 0 -226 c 7 -7 43 -12 89 -12 l 78 0 l 3 -327 l 3 -328 l 29 -63 c 35 -76 110 -149 182 -176 c 72 -27 240 -33 324 -12 c 97 25 113 39 107 90 c -2 22 -15 74 -27 115 l -23 73 l -81 -7 c -75 -6 -84 -5 -116 17 c -59 40 -60 46 -60 346 l 0 272 l 130 0 c 118 0 130 2 140 19 c 11 21 14 189 4 215 c -5 14 -27 16 -140 16 l -134 0 l 0 134 c 0 128 -1 136 -22 150 c -22 15 -39 17 -103 10 z" stroke-linecap="round"/>
</g>
		<g transform="matrix(0.1333 0 0 -0.1333 -380.522 -34.6396)">
<path style="stroke: none; stroke-width: 1; stroke-dasharray: none; stroke-linecap: butt; stroke-dashoffset: 0; stroke-linejoin: miter; stroke-miterlimit: 4; is-custom-font: none; font-file-url: none; fill: rgb(0,0,0); fill-rule: nonzero; opacity: 1;" transform=" translate(-2266.2185, -5379.649)" d="M 2279 5956 c -83 -22 -160 -76 -221 -156 l -27 -35 l -1 66 c 0 100 -1 100 -160 97 l -135 -3 l -3 -557 c -2 -556 -2 -557 19 -568 c 33 -18 287 -9 299 10 c 6 9 10 161 10 360 c 0 195 4 360 10 380 c 12 43 61 93 112 114 c 52 22 145 21 188 -3 c 19 -10 48 -40 65 -66 l 30 -48 l 5 -366 l 5 -365 l 25 -13 c 35 -18 260 -18 284 0 c 17 12 18 39 17 420 c -2 430 -5 468 -52 558 c -25 49 -94 121 -140 145 c -84 43 -232 57 -330 30 z" stroke-linecap="round"/>
</g>
		<g transform="matrix(0.1333 0 0 -0.1333 -98.752 -32.644)">
<path style="stroke: none; stroke-width: 1; stroke-dasharray: none; stroke-linecap: butt; stroke-dashoffset: 0; stroke-linejoin: miter; stroke-miterlimit: 4; is-custom-font: none; font-file-url: none; fill: rgb(0,0,0); fill-rule: nonzero; opacity: 1;" transform=" translate(-4379.5, -5364.6784)" d="M 4242 5950 c -103 -27 -166 -64 -247 -145 c -119 -118 -175 -264 -175 -453 c 0 -232 113 -435 292 -525 c 225 -113 567 -80 741 74 c 62 54 62 77 -1 154 c -27 33 -55 59 -63 58 c -8 -1 -51 -18 -97 -38 c -175 -77 -359 -68 -456 23 c -34 32 -76 116 -76 155 l 0 27 l 385 0 l 385 0 l 6 26 c 4 15 4 76 0 135 c -17 280 -143 454 -371 514 c -82 21 -232 19 -323 -5 z m 259 -243 c 58 -31 98 -95 106 -171 l 6 -56 l -227 0 l -226 0 l 0 28 c 0 72 79 182 150 211 c 48 19 143 13 191 -12 z" stroke-linecap="round"/>
</g>
		<g transform="matrix(0.1333 0 0 -0.1333 50.8566 -34.7451)">
<path style="stroke: none; stroke-width: 1; stroke-dasharray: none; stroke-linecap: butt; stroke-dashoffset: 0; stroke-linejoin: miter; stroke-miterlimit: 4; is-custom-font: none; font-file-url: none; fill: rgb(0,0,0); fill-rule: nonzero; opacity: 1;" transform=" translate(-5501.5172, -5380.4415)" d="M 5664 5956 c -63 -20 -127 -69 -169 -130 c -21 -31 -42 -56 -47 -56 c -4 0 -7 31 -6 69 c 2 44 -1 74 -9 82 c -19 19 -252 22 -280 3 l -23 -14 l 0 -543 c 0 -323 4 -548 10 -557 c 7 -12 37 -16 137 -18 c 74 -2 140 1 156 7 l 27 11 l 0 340 c 0 376 2 388 61 433 c 71 52 99 61 204 64 c 64 2 104 7 112 16 c 17 17 32 103 35 200 c 3 68 0 80 -16 93 c -25 18 -135 18 -192 0 z" stroke-linecap="round"/>
</g>
		<g transform="matrix(0.1333 0 0 -0.1333 193.9819 -34.7706)">
<path style="stroke: none; stroke-width: 1; stroke-dasharray: none; stroke-linecap: butt; stroke-dashoffset: 0; stroke-linejoin: miter; stroke-miterlimit: 4; is-custom-font: none; font-file-url: none; fill: rgb(0,0,0); fill-rule: nonzero; opacity: 1;" transform=" translate(-6575, -5380.6331)" d="M 6587 5960 c -87 -22 -190 -95 -239 -170 c -17 -24 -17 -24 -18 45 c 0 39 -4 75 -8 82 c -11 17 -257 20 -277 3 c -13 -11 -15 -88 -15 -554 c 0 -323 4 -547 10 -556 c 8 -12 37 -15 159 -15 c 82 0 153 4 158 8 c 4 5 10 177 13 382 l 5 373 l 31 39 c 44 55 104 83 182 83 c 73 0 110 -16 146 -62 c 42 -57 46 -94 46 -453 c 0 -196 4 -346 10 -355 c 13 -21 288 -22 313 -1 c 15 12 17 51 17 386 c 0 414 -7 479 -59 583 c -36 72 -105 134 -181 163 c -62 24 -229 35 -293 19 z" stroke-linecap="round"/>
</g>
		<g transform="matrix(0.1333 0 0 -0.1333 67.1438 152.4552)">
<path style="stroke: none; stroke-width: 1; stroke-dasharray: none; stroke-linecap: butt; stroke-dashoffset: 0; stroke-linejoin: miter; stroke-miterlimit: 4; is-custom-font: none; font-file-url: none; fill: rgb(0,0,0); fill-rule: nonzero; opacity: 1;" transform=" translate(-5624.5, -3976.097)" d="M 8997 5925 c -11 -5 -24 -17 -28 -25 c -5 -8 -50 -150 -100 -315 c -50 -165 -102 -337 -116 -383 c -14 -46 -29 -80 -33 -75 c -4 4 -13 31 -19 58 c -34 141 -207 719 -219 731 c -20 21 -314 20 -332 -1 c -15 -19 -2 -58 155 -470 c 68 -176 152 -397 188 -491 c 74 -192 75 -203 18 -282 c -39 -53 -100 -77 -177 -69 c -45 5 -59 2 -74 -13 c -23 -23 -44 -120 -38 -182 l 5 -48 l -456 0 l -457 0 l -23 -47 c -13 -27 -53 -100 -91 -163 c -324 -549 -847 -951 -1447 -1111 c -211 -56 -311 -70 -546 -76 c -240 -6 -367 4 -562 43 c -571 115 -1082 438 -1435 908 c -94 126 -229 342 -260 415 l -12 31 l -500 0 l -499 0 l 7 -22 c 22 -72 115 -292 174 -413 c 426 -866 1182 -1512 2072 -1770 c 340 -99 592 -135 932 -135 c 236 0 417 18 628 60 c 530 107 1009 331 1443 677 c 142 113 407 378 519 518 c 224 282 423 627 540 936 l 43 114 l 104 6 c 121 7 184 28 264 88 c 105 80 175 194 265 436 c 217 584 272 733 282 755 c 28 68 98 269 98 283 c 0 8 -6 19 -13 25 c -16 14 -275 20 -300 7 z" stroke-linecap="round"/>
</g>
		<g transform="matrix(0.1333 0 0 -0.1333 -0.7125 149.2226)">
<path style="stroke: none; stroke-width: 1; stroke-dasharray: none; stroke-linecap: butt; stroke-dashoffset: 0; stroke-linejoin: miter; stroke-miterlimit: 4; is-custom-font: none; font-file-url: none; fill: rgb(0,0,0); fill-rule: nonzero; opacity: 1;" transform=" translate(-5115, -4000.7412)" d="M 3740 4350 c 0 -17 146 -185 228 -261 c 325 -305 766 -465 1232 -446 c 360 15 701 145 980 373 c 111 90 310 305 310 334 c 0 6 -502 10 -1375 10 c -878 0 -1375 -3 -1375 -10 z" stroke-linecap="round"/>
</g>
</g>
</g>
</svg>